# xmcd
#
# Track frame offsets:
#	150
#	10135
#	21865
#	34680
#	47397
#	60132
#	72830
#	84385
#	96867
#	111462
#	125380
#	134972
#	148645
#	161992
#	172250
#	184510
#	196290
#	211442
#	224927
#	234340
#
# Disc length: 3286 seconds
#
# Revision: 2
# Processed by: cddbd v1.5.2PL0 Copyright (c) Steve Scherf et al.
# Submitted via: dBpowerAMP V4.0
#
DISCID=280cd414
DTITLE=Various Artist - Country Songs That Will Live Forever [CD1]
DYEAR=1993
DGENRE=Country
TTITLE0=Eddy Arnold - What's He Doing in My World
TTITLE1=Patsy Cline - Walkin' After Midnight
TTITLE2=Johnny Cash - Folsom Prison Blues
TTITLE3=Hank Snow - Hello Love
TTITLE4=Roy Acuff, His Smoky Mountain Boys - Wabash Cannonball
TTITLE5=Red Foley - Alabama Jubilee
TTITLE6=Loretta Lynn - Love is The Foundation
TTITLE7=Hank Williams - Cold Cold Heart
TTITLE8=Tennessee Ernie Ford - The Cry of The Wild Goose
TTITLE9=Marty Robbins - Twentieth Century Drifter
TTITLE10=Jim Reeves - Billy Bayou
TTITLE11=Pee Wee King, His Golden West Cowboys - Tennessee Waltz
TTITLE12=Jimmie Rodgers, The Rainbow Ranch Boys - In the Jailhouse Now Number 2
TTITLE13=Kitty Wells - I Can't Stop Loving You
TTITLE14=Ernest Tubb - I Love You Because
TTITLE15=Bill Monroe, His Blue Grass Boys - Gotta Travel On
TTITLE16=Owen Bradley Quintet, Jack Shook, Dottie Dillard - Blues Stay Away from Me
TTITLE17=Hank Thompson, Merle Travis - Wildwood Flower
TTITLE18=Chet Atkins - Yakety Axe
TTITLE19=Lester Flatt, Earl Scruggs - Foggy Mountain Breakdown theme from Bonnie and Clyde
EXTD=additions and corrections
EXTT0=
EXTT1=
EXTT2=
EXTT3=
EXTT4=
EXTT5=
EXTT6=
EXTT7=
EXTT8=
EXTT9=
EXTT10=
EXTT11=
EXTT12=
EXTT13=
EXTT14=
EXTT15=
EXTT16=
EXTT17=
EXTT18=
EXTT19=
PLAYORDER=
